<svg width="15" height="16" viewBox="0 0 15 16" fill="none" xmlns="http://www.w3.org/2000/svg">
<path d="M1.22266 7C0.670371 7 0.222656 7.44772 0.222656 8C0.222656 8.55228 0.670371 9 1.22266 9V7ZM13.9298 8.70711C14.3203 8.31658 14.3203 7.68342 13.9298 7.29289L7.5658 0.928932C7.17528 0.538408 6.54211 0.538408 6.15159 0.928932C5.76106 1.31946 5.76106 1.95262 6.15159 2.34315L11.8084 8L6.15159 13.6569C5.76106 14.0474 5.76106 14.6805 6.15159 15.0711C6.54211 15.4616 7.17528 15.4616 7.5658 15.0711L13.9298 8.70711ZM1.22266 9H13.2227V7H1.22266V9Z" fill="white"/>
</svg>
