<svg width="592" height="396" viewBox="0 0 592 396" fill="none" xmlns="http://www.w3.org/2000/svg">
<path d="M592.002 1.03125H0V395.619H592.002V1.03125Z" fill="#181A1C"/>
<path d="M419.565 202.038C421.491 190.248 423.827 178.531 426.573 166.885C427.265 163.946 427.983 161.011 428.727 158.081C429.252 156.019 431.34 151.762 430.782 149.733C430.306 148.007 427.833 146.371 427.12 144.432C426.298 142.18 426.148 139.738 426.689 137.403C427.725 132.943 430.948 129.156 434.806 126.426C444.209 119.777 456.778 118.975 468.497 119.525C480.742 120.087 493.761 122.201 502.704 130.153C511.066 137.586 514.336 148.799 515.9 159.567C518.364 176.536 517.501 193.737 516.243 210.85C516.106 212.712 515.274 214.453 513.911 215.727C512.549 217 510.757 217.713 508.892 217.721C481.515 217.836 454.036 217.618 427.074 213.225C424.886 212.869 422.551 212.412 421.01 210.895C418.742 208.659 419.063 205.103 419.565 202.038Z" fill="white"/>
<path d="M341.172 385.47H440.478L433.39 327.732L379.006 317.141L341.172 385.47Z" fill="#181A1C"/>
<path d="M440.474 385.945H341.166C341.083 385.945 341.002 385.923 340.93 385.882C340.858 385.841 340.798 385.782 340.757 385.71C340.716 385.638 340.695 385.557 340.695 385.475C340.695 385.393 340.716 385.312 340.757 385.24L378.591 316.908C378.639 316.82 378.714 316.75 378.805 316.708C378.896 316.666 378.998 316.654 379.097 316.673L433.481 327.265C433.579 327.284 433.669 327.334 433.737 327.407C433.805 327.48 433.848 327.573 433.86 327.672L440.948 385.412C440.956 385.479 440.951 385.547 440.931 385.611C440.911 385.675 440.878 385.735 440.833 385.785C440.789 385.836 440.734 385.876 440.673 385.904C440.612 385.931 440.545 385.945 440.478 385.945H440.474ZM341.974 384.994H439.937L432.956 328.132L379.248 317.672L341.974 384.994Z" fill="white"/>
<path d="M412.824 335.33L362.477 334.267C362.477 334.267 384.999 288.037 399.152 260.712C402.483 254.27 407.126 248.6 412.782 244.065C418.437 239.531 424.979 236.233 431.986 234.386C455.421 228.226 494.586 221.29 534.688 228.981C543.401 230.641 551.131 235.619 556.252 242.868C569.838 262.153 576.932 301.503 585.549 330.102L529.971 331.12L543.213 377.421L435.904 376.805L412.824 335.33Z" fill="#E9530E"/>
<path d="M382.117 394.716H556.591C578.977 394.716 595.558 373.885 590.56 352.038L585.543 330.088C585.543 330.088 546.919 320.933 521.71 331.106L526.973 352.267H445.17C429.628 352.267 414.365 357.173 402.121 366.745C393.808 373.243 385.952 382.311 382.117 394.716Z" fill="#181A1C"/>
<path d="M556.598 395.192H382.125C382.051 395.192 381.978 395.174 381.911 395.141C381.845 395.108 381.788 395.059 381.743 395C381.698 394.939 381.667 394.868 381.655 394.793C381.642 394.718 381.648 394.641 381.672 394.568C385.046 383.671 391.829 374.181 401.835 366.368C407.973 361.589 414.885 357.901 422.27 355.464C422.329 355.444 422.392 355.436 422.454 355.441C422.516 355.445 422.577 355.462 422.632 355.49C422.688 355.518 422.738 355.557 422.778 355.604C422.819 355.651 422.85 355.706 422.87 355.765C422.89 355.824 422.897 355.886 422.893 355.949C422.889 356.011 422.872 356.072 422.844 356.127C422.816 356.183 422.777 356.233 422.73 356.274C422.683 356.315 422.629 356.346 422.569 356.365C415.287 358.767 408.471 362.404 402.419 367.116C392.758 374.665 386.151 383.783 382.773 394.234H556.598C561.765 394.234 566.864 393.067 571.519 390.822C576.173 388.577 580.261 385.31 583.481 381.265C586.701 377.221 588.968 372.501 590.115 367.458C591.262 362.415 591.26 357.178 590.107 352.136L585.088 330.192C585.073 330.131 585.071 330.069 585.082 330.007C585.092 329.945 585.114 329.886 585.147 329.834C585.18 329.781 585.223 329.735 585.273 329.698C585.324 329.662 585.381 329.636 585.442 329.622C585.503 329.608 585.565 329.606 585.627 329.616C585.688 329.626 585.747 329.648 585.8 329.681C585.853 329.714 585.899 329.757 585.935 329.808C585.972 329.858 585.998 329.916 586.012 329.977L591.031 351.921C592.215 357.101 592.218 362.483 591.039 367.664C589.86 372.846 587.53 377.696 584.221 381.852C580.913 386.008 576.711 389.365 571.929 391.672C567.147 393.979 561.907 395.178 556.598 395.179V395.192Z" fill="white"/>
<path d="M404.166 388.098C404.09 388.096 404.016 388.076 403.949 388.039C403.882 388.002 403.825 387.95 403.783 387.886C403.74 387.823 403.714 387.75 403.706 387.674C403.698 387.598 403.708 387.522 403.736 387.451C407.443 378.332 415.625 371.008 425.09 368.338C425.211 368.304 425.341 368.319 425.451 368.381C425.561 368.442 425.642 368.545 425.676 368.666C425.71 368.787 425.695 368.917 425.634 369.027C425.572 369.137 425.47 369.218 425.349 369.253C416.159 371.841 408.214 378.958 404.615 387.811C404.577 387.898 404.514 387.972 404.434 388.023C404.354 388.074 404.261 388.1 404.166 388.098Z" fill="white"/>
<path d="M422.662 388.511C422.595 388.511 422.529 388.497 422.468 388.47C422.411 388.444 422.36 388.408 422.317 388.363C422.274 388.317 422.241 388.264 422.219 388.206C422.196 388.147 422.186 388.085 422.188 388.023C422.189 387.961 422.204 387.899 422.229 387.842C423.967 384.009 426.469 380.572 429.58 377.741C432.692 374.909 436.348 372.744 440.324 371.376C440.444 371.336 440.574 371.345 440.687 371.401C440.799 371.458 440.885 371.556 440.925 371.676C440.965 371.796 440.956 371.926 440.9 372.039C440.844 372.152 440.745 372.238 440.626 372.278C436.773 373.604 433.23 375.703 430.215 378.447C427.201 381.191 424.777 384.522 423.093 388.237C423.055 388.319 422.994 388.388 422.917 388.437C422.841 388.485 422.752 388.511 422.662 388.511Z" fill="white"/>
<path d="M518.615 330.711C518.513 330.712 518.414 330.679 518.332 330.618C518.25 330.558 518.19 330.473 518.161 330.375L506.743 292.959C506.164 291.061 505.563 289.101 504.329 287.55C503.251 286.194 501.326 285.025 499.449 285.467C499.327 285.496 499.198 285.474 499.091 285.408C498.984 285.341 498.908 285.235 498.88 285.112C498.851 284.99 498.872 284.861 498.939 284.754C499.005 284.647 499.111 284.57 499.234 284.542C501.235 284.07 503.527 285.016 505.074 286.957C506.42 288.648 507.075 290.79 507.659 292.681L519.076 330.097C519.094 330.157 519.101 330.219 519.095 330.282C519.089 330.344 519.07 330.404 519.041 330.459C519.011 330.514 518.971 330.563 518.923 330.603C518.875 330.642 518.819 330.672 518.759 330.69C518.713 330.705 518.664 330.713 518.615 330.711Z" fill="white"/>
<path d="M459.223 303.848C458.185 303.848 457.151 303.703 456.153 303.417C450.707 301.853 446.89 296.177 445.115 287C441.533 268.485 443.327 248.612 450.165 231.035C450.216 230.925 450.307 230.839 450.419 230.794C450.531 230.749 450.656 230.749 450.769 230.793C450.881 230.836 450.973 230.922 451.025 231.031C451.077 231.14 451.086 231.265 451.05 231.38C444.275 248.789 442.5 268.474 446.048 286.819C447.237 292.957 449.999 300.66 456.414 302.502C459.593 303.414 463.324 302.69 466.653 300.516C469.884 298.409 472.275 295.34 474.192 292.616C487.979 273.055 492.445 248.167 496.38 226.208C496.391 226.146 496.413 226.087 496.447 226.034C496.48 225.981 496.524 225.935 496.575 225.899C496.626 225.863 496.684 225.837 496.746 225.824C496.807 225.81 496.87 225.809 496.932 225.82C496.994 225.831 497.052 225.854 497.105 225.889C497.158 225.923 497.203 225.967 497.239 226.019C497.274 226.07 497.299 226.129 497.312 226.19C497.325 226.252 497.325 226.315 497.313 226.377C493.362 248.433 488.882 273.43 474.97 293.164C472.997 295.967 470.528 299.116 467.17 301.312C464.63 302.981 461.855 303.848 459.223 303.848Z" fill="white"/>
<path d="M429.408 339.711C424.19 339.711 418.759 337.229 415.1 332.972C411.067 328.281 409.014 321.571 409.468 314.562C409.85 308.681 411.92 302.485 415.616 296.142C415.68 296.033 415.784 295.954 415.906 295.922C416.028 295.89 416.157 295.907 416.266 295.971C416.375 296.034 416.454 296.139 416.486 296.261C416.518 296.382 416.501 296.512 416.437 296.621C412.814 302.834 410.789 308.89 410.416 314.623C409.985 321.386 411.946 327.847 415.819 332.35C420.089 337.311 426.87 339.746 432.695 338.389C432.817 338.36 432.946 338.382 433.053 338.448C433.16 338.515 433.236 338.621 433.265 338.744C433.293 338.867 433.272 338.996 433.205 339.103C433.139 339.21 433.033 339.286 432.91 339.314C431.762 339.58 430.586 339.713 429.408 339.711Z" fill="white"/>
<path d="M456.745 229.071L460.487 262.667L496.031 225.586C493.497 224.81 491.199 223.41 489.345 221.514C487.492 219.619 486.143 217.288 485.422 214.736L475.75 180.492L448.844 194.014L456.745 229.071Z" fill="#181A1C"/>
<path d="M456.753 229.555C456.645 229.554 456.541 229.517 456.457 229.45C456.373 229.382 456.314 229.289 456.29 229.184L448.386 194.127C448.363 194.023 448.376 193.915 448.421 193.819C448.467 193.723 448.543 193.644 448.638 193.597L475.542 180.074C475.604 180.043 475.673 180.025 475.743 180.024C475.813 180.022 475.882 180.035 475.946 180.064C476.011 180.092 476.068 180.134 476.113 180.187C476.159 180.24 476.193 180.302 476.212 180.37L485.884 214.613C486.579 217.091 487.885 219.355 489.684 221.194C491.482 223.033 493.714 224.39 496.175 225.138C496.234 225.156 496.29 225.185 496.338 225.225C496.386 225.265 496.426 225.313 496.455 225.368C496.484 225.423 496.502 225.483 496.508 225.545C496.514 225.607 496.508 225.67 496.49 225.73C496.472 225.789 496.442 225.845 496.403 225.893C496.363 225.941 496.315 225.981 496.26 226.01C496.205 226.04 496.145 226.058 496.083 226.064C496.021 226.07 495.958 226.064 495.899 226.046C493.286 225.252 490.916 223.813 489.006 221.86C487.096 219.907 485.708 217.504 484.971 214.872L475.456 181.183L449.39 194.28L457.212 228.974C457.226 229.035 457.228 229.098 457.217 229.16C457.207 229.221 457.184 229.28 457.151 229.333C457.118 229.385 457.075 229.431 457.024 229.467C456.973 229.503 456.915 229.528 456.854 229.542C456.821 229.55 456.787 229.554 456.753 229.555Z" fill="white"/>
<path d="M474.112 172.18C474.112 172.18 480.633 161.153 487.772 163.378C498.652 166.771 497.95 186.239 480.016 185.301C480.016 185.301 458.804 212.434 438.441 204.903C418.077 197.372 433.014 151.487 436.963 143.619C436.963 143.619 464 140.015 466.019 156.343C467.203 165.828 464.922 172.18 474.112 172.18Z" fill="#181A1C"/>
<path d="M445.854 206.693C443.282 206.702 440.728 206.251 438.314 205.362C434.299 203.876 431.363 200.833 429.59 196.337C423.231 180.19 433.403 149.753 436.576 143.419C436.61 143.349 436.661 143.29 436.724 143.245C436.787 143.2 436.861 143.172 436.938 143.162C437.597 143.074 453.202 141.081 461.571 147.551C462.949 148.591 464.101 149.903 464.953 151.406C465.805 152.909 466.34 154.571 466.525 156.29C466.786 158.388 466.879 160.351 466.956 162.082C467.247 168.212 467.406 171.626 473.869 171.714C474.901 170.058 481.034 160.786 487.934 162.939C493.119 164.554 496.262 170.075 495.243 175.779C494.325 180.912 489.918 186.213 480.258 185.799C476.394 190.465 472.002 194.667 467.172 198.321C459.709 203.87 452.469 206.693 445.854 206.693ZM437.304 144.074C434.051 150.79 424.295 180.319 430.466 195.987C432.138 200.227 434.885 203.083 438.635 204.469C458.432 211.802 479.455 185.288 479.666 185.021C479.713 184.96 479.773 184.913 479.843 184.881C479.912 184.849 479.988 184.835 480.064 184.839C489.271 185.316 493.455 180.388 494.308 175.611C495.103 171.162 493.041 165.524 487.654 163.844C480.952 161.759 474.606 172.327 474.543 172.434C474.501 172.505 474.441 172.564 474.369 172.605C474.298 172.646 474.216 172.667 474.134 172.667C466.506 172.667 466.297 168.246 466.006 162.128C465.926 160.402 465.834 158.461 465.575 156.406C465.404 154.813 464.907 153.271 464.116 151.877C463.326 150.484 462.258 149.267 460.978 148.304C453.475 142.504 439.346 143.844 437.295 144.074H437.304Z" fill="white"/>
<path d="M477.906 178.999C477.811 179 477.718 178.972 477.639 178.918C477.56 178.865 477.499 178.79 477.464 178.701C477.428 178.613 477.42 178.516 477.441 178.423C477.461 178.33 477.509 178.245 477.578 178.18C478.968 176.878 480.645 175.924 482.473 175.396C484.301 174.867 486.229 174.779 488.097 175.139C488.221 175.164 488.329 175.236 488.399 175.341C488.469 175.446 488.494 175.574 488.47 175.698C488.445 175.821 488.373 175.93 488.268 176C488.163 176.07 488.035 176.095 487.912 176.071C486.192 175.741 484.419 175.824 482.737 176.311C481.055 176.798 479.512 177.676 478.233 178.874C478.144 178.957 478.027 179.002 477.906 178.999Z" fill="white"/>
<path d="M447.683 179.054C447.165 179.053 446.649 178.995 446.145 178.879C444.064 178.396 442.336 176.979 441.28 174.885C440.228 172.714 439.966 170.243 440.539 167.899C441.709 162.833 446.125 159.514 450.391 160.502C454.656 161.49 457.168 166.413 455.991 171.479C455.478 173.837 454.158 175.941 452.26 177.428C450.954 178.458 449.345 179.029 447.683 179.054ZM448.865 161.278C445.554 161.278 442.403 164.082 441.464 168.115C440.94 170.242 441.175 172.485 442.129 174.456C443.056 176.293 444.557 177.535 446.36 177.952C448.163 178.368 450.054 177.915 451.694 176.671C453.415 175.318 454.61 173.407 455.072 171.266C456.125 166.709 453.928 162.296 450.177 161.427C449.747 161.328 449.307 161.278 448.865 161.278Z" fill="white"/>
<path d="M435.665 166.755C436.778 161.936 434.427 157.276 430.414 156.347C426.401 155.418 422.246 158.571 421.133 163.391C420.02 168.21 422.37 172.87 426.383 173.799C430.396 174.728 434.552 171.574 435.665 166.755Z" fill="#181A1C"/>
<path d="M427.85 174.468C427.333 174.468 426.817 174.409 426.312 174.293C422.051 173.305 419.535 168.382 420.711 163.314C421.887 158.245 426.297 154.928 430.562 155.916C432.643 156.397 434.371 157.816 435.426 159.91C436.451 162.09 436.713 164.551 436.171 166.898C435.629 169.245 434.315 171.342 432.439 172.85C431.128 173.88 429.516 174.448 427.85 174.468ZM429.039 156.697C425.728 156.697 422.577 159.501 421.638 163.534C420.586 168.088 422.781 172.501 426.532 173.37C428.333 173.788 430.228 173.333 431.868 172.089C433.565 170.715 434.754 168.812 435.246 166.683C435.738 164.555 435.504 162.322 434.582 160.342C433.654 158.504 432.152 157.262 430.351 156.846C429.921 156.746 429.481 156.696 429.039 156.697Z" fill="white"/>
<path d="M441.003 168.49C440.933 168.49 440.864 168.475 440.801 168.446C440.738 168.416 440.682 168.373 440.637 168.32C440.548 168.212 438.437 165.732 435.951 167.198C435.843 167.262 435.714 167.281 435.592 167.25C435.47 167.219 435.365 167.14 435.301 167.032C435.237 166.924 435.218 166.794 435.249 166.672C435.28 166.55 435.359 166.445 435.467 166.381C438.019 164.871 440.443 166.596 441.367 167.713C441.425 167.783 441.462 167.867 441.474 167.956C441.486 168.046 441.471 168.137 441.433 168.218C441.395 168.3 441.334 168.369 441.258 168.417C441.182 168.465 441.093 168.49 441.003 168.49Z" fill="white"/>
<path d="M455.541 171.854C455.42 171.851 455.304 171.801 455.218 171.716C455.132 171.63 455.082 171.515 455.078 171.393C455.075 171.272 455.117 171.153 455.198 171.062C455.278 170.971 455.39 170.914 455.511 170.903L474.304 169.743C474.43 169.735 474.553 169.778 474.648 169.861C474.742 169.945 474.799 170.063 474.807 170.188C474.815 170.314 474.772 170.438 474.689 170.532C474.605 170.627 474.488 170.684 474.362 170.692L455.569 171.852L455.541 171.854Z" fill="white"/>
<path d="M262.646 395.658H458.628C459.927 395.658 461.173 395.141 462.091 394.221C463.01 393.302 463.526 392.054 463.526 390.754V389.6C463.526 387.041 462.511 384.588 460.704 382.779C458.897 380.969 456.446 379.953 453.89 379.953H248.523L250.171 386.087C250.911 388.833 252.534 391.259 254.789 392.989C257.044 394.719 259.805 395.657 262.646 395.658Z" fill="white"/>
<path d="M256.923 388.536H378.115C379.324 388.535 380.517 388.259 381.604 387.728C382.69 387.198 383.642 386.426 384.387 385.473C385.132 384.52 385.65 383.409 385.903 382.226C386.156 381.042 386.137 379.817 385.847 378.642L362.943 286.134C362.514 284.405 361.52 282.87 360.119 281.772C358.717 280.675 356.989 280.079 355.21 280.078H234.011C232.802 280.079 231.609 280.355 230.523 280.886C229.436 281.417 228.484 282.188 227.74 283.141C226.995 284.095 226.476 285.205 226.223 286.389C225.97 287.572 225.99 288.798 226.28 289.973L249.185 382.498C249.618 384.224 250.614 385.756 252.016 386.85C253.418 387.944 255.145 388.538 256.923 388.536Z" fill="white"/>
<path d="M378.116 388.776H256.93C255.095 388.781 253.312 388.169 251.867 387.038C250.422 385.907 249.398 384.323 248.959 382.539L226.054 290.032C225.754 288.821 225.733 287.558 225.994 286.338C226.254 285.118 226.789 283.974 227.557 282.992C228.325 282.009 229.307 281.216 230.428 280.67C231.548 280.125 232.778 279.842 234.024 279.844H355.217C357.051 279.839 358.834 280.451 360.279 281.582C361.725 282.713 362.749 284.297 363.187 286.081L386.093 378.588C386.392 379.799 386.413 381.062 386.152 382.282C385.891 383.502 385.357 384.646 384.588 385.628C383.82 386.61 382.839 387.404 381.718 387.949C380.598 388.495 379.368 388.778 378.122 388.776H378.116ZM234.018 280.318C232.845 280.318 231.687 280.586 230.633 281.101C229.578 281.615 228.655 282.363 227.932 283.288C227.209 284.213 226.706 285.291 226.461 286.44C226.216 287.588 226.235 288.778 226.517 289.917L249.423 382.425C249.835 384.104 250.799 385.595 252.159 386.661C253.519 387.726 255.197 388.304 256.923 388.302H378.116C379.289 388.302 380.447 388.035 381.502 387.52C382.556 387.006 383.48 386.258 384.203 385.332C384.926 384.407 385.429 383.33 385.674 382.181C385.919 381.032 385.899 379.843 385.617 378.703L362.713 286.195C362.3 284.516 361.336 283.025 359.975 281.96C358.615 280.894 356.937 280.316 355.21 280.318H234.018Z" fill="white"/>
<path d="M294.055 315.788C294.055 316.581 294.289 317.356 294.729 318.015C295.169 318.673 295.794 319.187 296.525 319.49C297.257 319.794 298.062 319.873 298.838 319.718C299.614 319.564 300.328 319.182 300.887 318.622C301.447 318.061 301.828 317.347 301.983 316.57C302.137 315.793 302.058 314.987 301.755 314.255C301.452 313.523 300.939 312.897 300.281 312.457C299.623 312.016 298.849 311.781 298.057 311.781C297.531 311.781 297.011 311.884 296.525 312.086C296.039 312.287 295.598 312.582 295.226 312.954C294.855 313.326 294.56 313.768 294.359 314.255C294.158 314.741 294.054 315.262 294.055 315.788Z" fill="#E9530E"/>
<path d="M14.2853 60.9922L188.94 60.9922C196.507 60.9922 202.641 54.8512 202.641 47.2759V15.1741C202.641 7.59877 196.507 1.45777 188.94 1.45777L14.2853 1.45777C6.71869 1.45777 0.584717 7.59877 0.584717 15.1741V47.2759C0.584717 54.8512 6.71869 60.9922 14.2853 60.9922Z" fill="#181A1C"/>
<path d="M188.939 61.4677H14.2839C10.526 61.4632 6.92328 59.9666 4.26603 57.3063C1.60878 54.646 0.113936 51.0392 0.109375 47.277V15.1773C0.113366 11.4147 1.60796 7.80733 4.26528 5.14656C6.92259 2.4858 10.5256 0.988942 14.2839 0.984375H188.939C192.697 0.988371 196.301 2.48498 198.959 5.14581C201.616 7.80663 203.111 11.4143 203.115 15.1773V47.277C203.111 51.0396 201.616 54.6467 198.958 57.3071C196.3 59.9674 192.697 61.4637 188.939 61.4677ZM14.2839 1.94409C10.7774 1.94809 7.41567 3.34455 4.93639 5.82708C2.45712 8.3096 1.06279 11.6754 1.05937 15.1859V47.277C1.06336 50.7873 2.45787 54.1528 4.93703 56.6352C7.41618 59.1176 10.7776 60.5142 14.2839 60.5188H188.939C192.445 60.5142 195.807 59.1176 198.286 56.6353C200.766 54.153 202.161 50.7875 202.165 47.277V15.1773C202.161 11.6666 200.767 8.30078 198.287 5.81832C195.807 3.33586 192.445 1.93946 188.939 1.93546L14.2839 1.94409Z" fill="white"/>
<path d="M180.868 32.6328C181.637 27.6199 178.202 22.9321 173.194 22.1624C168.187 21.3926 163.505 24.8323 162.736 29.8452C161.967 34.8581 165.403 39.5459 170.41 40.3157C175.417 41.0854 180.1 37.6457 180.868 32.6328Z" fill="#E9530E"/>
<path d="M31.4225 40.4207H139.563C140.767 40.4207 141.96 40.1832 143.073 39.7217C144.186 39.2602 145.197 38.5838 146.048 37.7311C146.9 36.8784 147.576 35.866 148.037 34.7519C148.498 33.6378 148.735 32.4437 148.735 31.2377C148.735 30.0318 148.498 28.8377 148.037 27.7235C147.576 26.6094 146.9 25.5971 146.048 24.7443C145.197 23.8916 144.186 23.2152 143.073 22.7537C141.96 22.2922 140.767 22.0547 139.563 22.0547H31.4225C28.9898 22.0547 26.6567 23.0222 24.9366 24.7443C23.2164 26.4665 22.25 28.8022 22.25 31.2377C22.25 33.6732 23.2164 36.0089 24.9366 37.7311C26.6567 39.4533 28.9898 40.4207 31.4225 40.4207Z" fill="#E9530E"/>
<path d="M14.2853 128.648L188.94 128.648C196.507 128.648 202.641 122.507 202.641 114.932V82.8303C202.641 75.255 196.507 69.114 188.94 69.114L14.2853 69.114C6.71869 69.114 0.584717 75.255 0.584717 82.8303V114.932C0.584717 122.507 6.71869 128.648 14.2853 128.648Z" fill="#181A1C"/>
<path d="M188.939 129.124H14.2839C10.526 129.119 6.92328 127.623 4.26603 124.963C1.60878 122.302 0.113936 118.695 0.109375 114.933V82.8314C0.113936 79.0692 1.60878 75.4623 4.26603 72.802C6.92328 70.1417 10.526 68.6452 14.2839 68.6406H188.939C192.697 68.6446 196.3 70.1409 198.958 72.8013C201.616 75.4617 203.111 79.0688 203.115 82.8314V114.933C203.111 118.696 201.616 122.303 198.958 124.963C196.3 127.624 192.697 129.12 188.939 129.124ZM14.2839 69.6003C10.7778 69.6043 7.41637 71.0005 4.93716 73.4826C2.45794 75.9646 1.06336 79.3299 1.05937 82.84V114.933C1.06336 118.444 2.45787 121.809 4.93703 124.291C7.41618 126.774 10.7776 128.17 14.2839 128.175H188.939C192.445 128.17 195.807 126.774 198.286 124.292C200.766 121.809 202.161 118.444 202.165 114.933V82.8314C202.161 79.321 200.766 75.9558 198.286 73.4738C195.807 70.9918 192.445 69.5957 188.939 69.5917L14.2839 69.6003Z" fill="white"/>
<path d="M172.711 107.996C177.752 107.496 181.433 102.999 180.934 97.9519C180.434 92.905 175.942 89.2191 170.901 89.7193C165.86 90.2195 162.178 94.7163 162.678 99.7633C163.178 104.81 167.669 108.496 172.711 107.996Z" fill="#181A1C"/>
<path d="M171.791 108.546C169.883 108.546 168.017 107.98 166.43 106.919C164.843 105.858 163.606 104.349 162.876 102.584C162.145 100.819 161.954 98.8762 162.326 97.0023C162.698 95.1283 163.617 93.4069 164.967 92.0558C166.316 90.7048 168.036 89.7847 169.907 89.4121C171.779 89.0394 173.719 89.2309 175.483 89.9623C177.246 90.6937 178.753 91.9321 179.813 93.521C180.873 95.1098 181.438 96.9777 181.438 98.8884C181.434 101.449 180.417 103.903 178.609 105.713C176.8 107.524 174.349 108.542 171.791 108.546ZM171.791 90.1798C170.071 90.1794 168.389 90.6898 166.958 91.6464C165.527 92.6031 164.412 93.963 163.753 95.5543C163.095 97.1455 162.922 98.8966 163.258 100.586C163.593 102.275 164.421 103.827 165.638 105.046C166.854 106.264 168.404 107.093 170.091 107.429C171.779 107.766 173.528 107.593 175.118 106.934C176.707 106.275 178.066 105.159 179.022 103.727C179.978 102.295 180.488 100.611 180.488 98.8884C180.486 96.5798 179.569 94.3664 177.938 92.7338C176.308 91.1012 174.097 90.1827 171.791 90.1798Z" fill="white"/>
<path d="M31.4247 108.065H139.565C140.781 108.083 141.989 107.86 143.119 107.406C144.248 106.953 145.276 106.28 146.143 105.425C147.01 104.57 147.698 103.552 148.168 102.428C148.638 101.304 148.88 100.099 148.88 98.8805C148.88 97.6624 148.638 96.4565 148.168 95.333C147.698 94.2094 147.01 93.1907 146.143 92.336C145.276 91.4813 144.248 90.8078 143.119 90.3547C141.989 89.9015 140.781 89.6777 139.565 89.6964H31.4247C29.0161 89.7333 26.7186 90.7172 25.0283 92.4355C23.338 94.1539 22.3906 96.4688 22.3906 98.8805C22.3906 101.292 23.338 103.607 25.0283 105.325C26.7186 107.044 29.0161 108.028 31.4247 108.065Z" fill="#181A1C"/>
<path d="M139.573 108.545H31.4334C30.1543 108.564 28.8842 108.328 27.697 107.851C26.5097 107.375 25.4291 106.666 24.5178 105.767C23.6065 104.869 22.8829 103.797 22.3889 102.616C21.895 101.435 21.6406 100.167 21.6406 98.8862C21.6406 97.6055 21.895 96.3376 22.3889 95.1563C22.8829 93.975 23.6065 92.9037 24.5178 92.005C25.4291 91.1062 26.5097 90.3978 27.697 89.921C28.8842 89.4442 30.1543 89.2085 31.4334 89.2276H139.573C140.852 89.2085 142.123 89.4442 143.31 89.921C144.497 90.3978 145.578 91.1062 146.489 92.005C147.4 92.9037 148.124 93.975 148.618 95.1563C149.112 96.3376 149.366 97.6055 149.366 98.8862C149.366 100.167 149.112 101.435 148.618 102.616C148.124 103.797 147.4 104.869 146.489 105.767C145.578 106.666 144.497 107.375 143.31 107.851C142.123 108.328 140.852 108.564 139.573 108.545ZM31.4334 90.1787C30.2797 90.1605 29.1339 90.3723 28.0628 90.8018C26.9916 91.2312 26.0165 91.8697 25.1942 92.6801C24.372 93.4904 23.7189 94.4565 23.2732 95.522C22.8275 96.5874 22.5979 97.731 22.5979 98.8862C22.5979 100.041 22.8275 101.185 23.2732 102.25C23.7189 103.316 24.372 104.282 25.1942 105.092C26.0165 105.903 26.9916 106.541 28.0628 106.971C29.1339 107.4 30.2797 107.612 31.4334 107.594H139.573C140.727 107.612 141.873 107.4 142.944 106.971C144.015 106.541 144.99 105.903 145.813 105.092C146.635 104.282 147.288 103.316 147.734 102.25C148.179 101.185 148.409 100.041 148.409 98.8862C148.409 97.731 148.179 96.5874 147.734 95.522C147.288 94.4565 146.635 93.4904 145.813 92.6801C144.99 91.8697 144.015 91.2312 142.944 90.8018C141.873 90.3723 140.727 90.1605 139.573 90.1787H31.4334Z" fill="white"/>
<path d="M14.2853 196.305L188.94 196.305C196.507 196.305 202.641 190.164 202.641 182.588V150.487C202.641 142.911 196.507 136.77 188.94 136.77L14.2853 136.77C6.71869 136.77 0.584717 142.911 0.584717 150.487V182.588C0.584717 190.164 6.71869 196.305 14.2853 196.305Z" fill="#181A1C"/>
<path d="M188.939 196.78H14.2839C10.526 196.776 6.92328 195.279 4.26603 192.619C1.60878 189.958 0.113936 186.352 0.109375 182.589V150.488C0.113936 146.725 1.60878 143.119 4.26603 140.458C6.92328 137.798 10.526 136.301 14.2839 136.297H188.939C192.697 136.301 196.3 137.797 198.958 140.458C201.616 143.118 203.111 146.725 203.115 150.488V182.589C203.111 186.352 201.616 189.959 198.958 192.62C196.3 195.28 192.697 196.776 188.939 196.78ZM14.2839 137.257C10.7778 137.261 7.41637 138.657 4.93716 141.139C2.45794 143.621 1.06336 146.986 1.05937 150.496V182.598C1.06336 186.108 2.45794 189.473 4.93716 191.956C7.41637 194.438 10.7778 195.834 14.2839 195.838H188.939C192.445 195.834 195.807 194.438 198.286 191.956C200.766 189.474 202.161 186.108 202.165 182.598V150.488C202.161 146.977 200.766 143.612 198.286 141.13C195.807 138.648 192.445 137.252 188.939 137.248L14.2839 137.257Z" fill="white"/>
<path d="M171.79 175.718C176.856 175.718 180.962 171.606 180.962 166.535C180.962 161.463 176.856 157.352 171.79 157.352C166.724 157.352 162.617 161.463 162.617 166.535C162.617 171.606 166.724 175.718 171.79 175.718Z" fill="#181A1C"/>
<path d="M171.791 176.194C169.883 176.195 168.017 175.629 166.43 174.567C164.843 173.506 163.606 171.998 162.876 170.233C162.145 168.468 161.954 166.525 162.326 164.651C162.698 162.778 163.617 161.056 164.966 159.705C166.315 158.354 168.034 157.434 169.906 157.061C171.778 156.688 173.718 156.879 175.481 157.61C177.244 158.341 178.751 159.579 179.812 161.168C180.872 162.756 181.438 164.624 181.438 166.535C181.435 169.095 180.418 171.55 178.609 173.361C176.801 175.172 174.349 176.191 171.791 176.194ZM171.791 157.828C170.071 157.828 168.389 158.338 166.958 159.295C165.527 160.252 164.412 161.612 163.753 163.203C163.095 164.795 162.922 166.546 163.258 168.235C163.593 169.925 164.422 171.477 165.638 172.695C166.855 173.913 168.405 174.742 170.093 175.078C171.78 175.414 173.529 175.241 175.119 174.582C176.709 173.923 178.067 172.806 179.023 171.374C179.978 169.941 180.488 168.257 180.488 166.535C180.485 164.226 179.568 162.014 177.938 160.381C176.307 158.749 174.097 157.831 171.791 157.828Z" fill="white"/>
<path d="M31.4247 175.721H139.565C140.781 175.74 141.989 175.516 143.119 175.063C144.248 174.609 145.276 173.936 146.143 173.081C147.01 172.227 147.698 171.208 148.168 170.084C148.638 168.961 148.88 167.755 148.88 166.537C148.88 165.319 148.638 164.113 148.168 162.989C147.698 161.866 147.01 160.847 146.143 159.992C145.276 159.138 144.248 158.464 143.119 158.011C141.989 157.558 140.781 157.334 139.565 157.353H31.4247C29.0161 157.39 26.7186 158.373 25.0283 160.092C23.338 161.81 22.3906 164.125 22.3906 166.537C22.3906 168.948 23.338 171.263 25.0283 172.982C26.7186 174.7 29.0161 175.684 31.4247 175.721Z" fill="#181A1C"/>
<path d="M139.573 176.193H31.4334C30.1543 176.212 28.8842 175.977 27.697 175.5C26.5097 175.023 25.4291 174.315 24.5178 173.416C23.6065 172.517 22.8829 171.446 22.3889 170.265C21.895 169.083 21.6406 167.815 21.6406 166.535C21.6406 165.254 21.895 163.986 22.3889 162.805C22.8829 161.623 23.6065 160.552 24.5178 159.653C25.4291 158.755 26.5097 158.046 27.697 157.569C28.8842 157.093 30.1543 156.857 31.4334 156.876H139.573C140.852 156.857 142.123 157.093 143.31 157.569C144.497 158.046 145.578 158.755 146.489 159.653C147.4 160.552 148.124 161.623 148.618 162.805C149.112 163.986 149.366 165.254 149.366 166.535C149.366 167.815 149.112 169.083 148.618 170.265C148.124 171.446 147.4 172.517 146.489 173.416C145.578 174.315 144.497 175.023 143.31 175.5C142.123 175.977 140.852 176.212 139.573 176.193ZM31.4334 157.827C30.2797 157.809 29.1339 158.021 28.0628 158.45C26.9916 158.88 26.0165 159.518 25.1942 160.329C24.372 161.139 23.7189 162.105 23.2732 163.17C22.8275 164.236 22.5979 165.38 22.5979 166.535C22.5979 167.69 22.8275 168.833 23.2732 169.899C23.7189 170.964 24.372 171.93 25.1942 172.741C26.0165 173.551 26.9916 174.19 28.0628 174.619C29.1339 175.049 30.2797 175.26 31.4334 175.242H139.573C140.727 175.26 141.873 175.049 142.944 174.619C144.015 174.19 144.99 173.551 145.813 172.741C146.635 171.93 147.288 170.964 147.734 169.899C148.179 168.833 148.409 167.69 148.409 166.535C148.409 165.38 148.179 164.236 147.734 163.17C147.288 162.105 146.635 161.139 145.813 160.329C144.99 159.518 144.015 158.88 142.944 158.45C141.873 158.021 140.727 157.809 139.573 157.827H31.4334Z" fill="white"/>
<path d="M14.2853 263.961H188.94C196.507 263.961 202.641 257.82 202.641 250.245V218.143C202.641 210.568 196.507 204.427 188.94 204.427L14.2853 204.427C6.71869 204.427 0.584717 210.568 0.584717 218.143V250.245C0.584717 257.82 6.71869 263.961 14.2853 263.961Z" fill="#181A1C"/>
<path d="M188.939 264.429H14.2839C10.526 264.424 6.92328 262.928 4.26603 260.267C1.60878 257.607 0.113936 254 0.109375 250.238V218.136C0.113936 214.374 1.60878 210.767 4.26603 208.107C6.92328 205.446 10.526 203.95 14.2839 203.945H188.939C192.697 203.949 196.3 205.446 198.958 208.106C201.616 210.766 203.111 214.374 203.115 218.136V250.238C203.111 254 201.616 257.608 198.958 260.268C196.3 262.928 192.697 264.425 188.939 264.429ZM14.2839 204.905C10.7776 204.91 7.41618 206.306 4.93703 208.789C2.45787 211.271 1.06336 214.637 1.05937 218.147V250.249C1.06336 253.759 2.45794 257.124 4.93716 259.606C7.41637 262.088 10.7778 263.484 14.2839 263.488H188.939C192.445 263.484 195.807 262.088 198.286 259.606C200.766 257.124 202.161 253.759 202.165 250.249V218.136C202.161 214.626 200.766 211.26 198.286 208.778C195.807 206.295 192.445 204.899 188.939 204.894L14.2839 204.905Z" fill="white"/>
<path d="M180.656 235.596C181.67 230.625 178.466 225.774 173.502 224.76C168.537 223.745 163.691 226.952 162.678 231.922C161.665 236.893 164.868 241.744 169.833 242.758C174.797 243.773 179.643 240.566 180.656 235.596Z" fill="#181A1C"/>
<path d="M171.791 243.843C169.883 243.843 168.017 243.277 166.43 242.216C164.843 241.155 163.606 239.646 162.876 237.881C162.145 236.116 161.954 234.174 162.326 232.3C162.698 230.426 163.617 228.705 164.966 227.353C166.315 226.002 168.034 225.082 169.906 224.709C171.778 224.336 173.718 224.527 175.481 225.259C177.244 225.99 178.751 227.228 179.812 228.816C180.872 230.405 181.438 232.272 181.438 234.183C181.435 236.744 180.418 239.199 178.609 241.01C176.801 242.82 174.349 243.839 171.791 243.843ZM171.791 225.477C170.071 225.476 168.389 225.987 166.958 226.943C165.527 227.9 164.412 229.26 163.753 230.852C163.095 232.443 162.922 234.194 163.258 235.884C163.593 237.573 164.422 239.125 165.638 240.343C166.855 241.561 168.405 242.391 170.093 242.727C171.78 243.063 173.529 242.89 175.119 242.231C176.709 241.571 178.067 240.455 179.023 239.022C179.978 237.59 180.488 235.906 180.488 234.183C180.482 231.877 179.564 229.667 177.934 228.037C176.304 226.407 174.095 225.49 171.791 225.487V225.477Z" fill="white"/>
<path d="M31.4247 243.369H139.565C140.781 243.388 141.989 243.164 143.119 242.711C144.248 242.258 145.276 241.584 146.143 240.73C147.01 239.875 147.698 238.856 148.168 237.733C148.638 236.609 148.88 235.403 148.88 234.185C148.88 232.967 148.638 231.761 148.168 230.638C147.698 229.514 147.01 228.495 146.143 227.641C145.276 226.786 144.248 226.113 143.119 225.659C141.989 225.206 140.781 224.982 139.565 225.001H31.4247C29.0161 225.038 26.7186 226.022 25.0283 227.74C23.338 229.459 22.3906 231.773 22.3906 234.185C22.3906 236.597 23.338 238.912 25.0283 240.63C26.7186 242.348 29.0161 243.332 31.4247 243.369Z" fill="#181A1C"/>
<path d="M139.573 243.842H31.4334C30.1543 243.861 28.8842 243.625 27.697 243.148C26.5097 242.671 25.4291 241.963 24.5178 241.064C23.6065 240.166 22.8829 239.094 22.3889 237.913C21.895 236.732 21.6406 235.464 21.6406 234.183C21.6406 232.902 21.895 231.635 22.3889 230.453C22.8829 229.272 23.6065 228.201 24.5178 227.302C25.4291 226.403 26.5097 225.695 27.697 225.218C28.8842 224.741 30.1543 224.505 31.4334 224.525H139.573C140.852 224.505 142.123 224.741 143.31 225.218C144.497 225.695 145.578 226.403 146.489 227.302C147.4 228.201 148.124 229.272 148.618 230.453C149.112 231.635 149.366 232.902 149.366 234.183C149.366 235.464 149.112 236.732 148.618 237.913C148.124 239.094 147.4 240.166 146.489 241.064C145.578 241.963 144.497 242.671 143.31 243.148C142.123 243.625 140.852 243.861 139.573 243.842ZM31.4334 225.476C30.2797 225.457 29.1339 225.669 28.0628 226.099C26.9916 226.528 26.0165 227.167 25.1942 227.977C24.372 228.787 23.7189 229.753 23.2732 230.819C22.8275 231.884 22.5979 233.028 22.5979 234.183C22.5979 235.338 22.8275 236.482 23.2732 237.547C23.7189 238.613 24.372 239.579 25.1942 240.389C26.0165 241.2 26.9916 241.838 28.0628 242.268C29.1339 242.697 30.2797 242.909 31.4334 242.891H139.573C140.727 242.909 141.873 242.697 142.944 242.268C144.015 241.838 144.99 241.2 145.813 240.389C146.635 239.579 147.288 238.613 147.734 237.547C148.179 236.482 148.409 235.338 148.409 234.183C148.409 233.028 148.179 231.884 147.734 230.819C147.288 229.753 146.635 228.787 145.813 227.977C144.99 227.167 144.015 226.528 142.944 226.099C141.873 225.669 140.727 225.457 139.573 225.476H31.4334Z" fill="white"/>
<path d="M294.06 264.427H188.936C188.816 264.418 188.703 264.365 188.62 264.277C188.538 264.188 188.492 264.072 188.492 263.952C188.492 263.831 188.538 263.715 188.62 263.626C188.703 263.538 188.816 263.485 188.936 263.477H294.06C294.181 263.485 294.294 263.538 294.376 263.626C294.459 263.715 294.504 263.831 294.504 263.952C294.504 264.072 294.459 264.188 294.376 264.277C294.294 264.365 294.181 264.418 294.06 264.427Z" fill="white"/>
<path d="M463.804 395.182H92.9739C92.8482 395.182 92.7277 395.132 92.6388 395.043C92.5499 394.955 92.5 394.834 92.5 394.708C92.5 394.583 92.5499 394.462 92.6388 394.373C92.7277 394.284 92.8482 394.234 92.9739 394.234H463.804C463.929 394.234 464.05 394.284 464.139 394.373C464.228 394.462 464.278 394.583 464.278 394.708C464.278 394.834 464.228 394.955 464.139 395.043C464.05 395.132 463.929 395.182 463.804 395.182Z" fill="white"/>
<path d="M157.407 293.719H17.8594L46.5639 394.715H186.112L157.407 293.719Z" fill="#181A1C"/>
<path d="M186.126 395.191H46.5775C46.4743 395.191 46.374 395.157 46.2916 395.095C46.2092 395.032 46.1493 394.945 46.1208 394.846L17.4163 293.856C17.3964 293.785 17.3931 293.711 17.4066 293.639C17.4202 293.566 17.4502 293.498 17.4945 293.44C17.5387 293.381 17.5959 293.333 17.6615 293.3C17.7272 293.267 17.7996 293.25 17.873 293.25H157.421C157.524 293.25 157.625 293.283 157.707 293.346C157.79 293.408 157.85 293.496 157.878 293.595L186.582 394.591C186.602 394.662 186.606 394.736 186.592 394.808C186.578 394.88 186.548 394.948 186.504 395.007C186.46 395.066 186.403 395.113 186.337 395.146C186.271 395.178 186.199 395.195 186.126 395.195V395.191ZM46.9373 394.242H185.499L157.063 294.197H18.502L46.9373 394.242Z" fill="white"/>
<path d="M60.6312 330.895C61.0107 332.231 60.0075 333.559 58.619 333.559H43.8478C42.9126 333.559 42.0911 332.938 41.8355 332.039L37.5849 317.078C37.2054 315.742 38.2086 314.414 39.5971 314.414H54.3683C55.3035 314.414 56.125 315.035 56.3806 315.934L60.6312 330.895Z" fill="#E9530E"/>
<path d="M84.2015 330.895C84.581 332.231 83.5778 333.559 82.1893 333.559H67.4181C66.483 333.559 65.6614 332.938 65.4058 332.039L61.1552 317.078C60.7757 315.742 61.7789 314.414 63.1674 314.414H77.9386C78.8738 314.414 79.6953 315.035 79.9509 315.934L84.2015 330.895Z" fill="#181A1C" stroke="white" stroke-width="1.04594"/>
<path d="M107.774 330.895C108.153 332.231 107.15 333.559 105.761 333.559H90.9904C90.0553 333.559 89.2338 332.938 88.9782 332.039L84.7259 317.078C84.3462 315.742 85.3495 314.414 86.7381 314.414H101.509C102.444 314.414 103.266 315.035 103.521 315.934L107.774 330.895Z" fill="#181A1C" stroke="white" stroke-width="1.04594"/>
<path d="M131.344 330.895C131.724 332.231 130.72 333.559 129.332 333.559H114.561C113.626 333.559 112.804 332.938 112.549 332.039L108.296 317.078C107.917 315.742 108.92 314.414 110.308 314.414H125.079C126.014 314.414 126.836 315.035 127.092 315.934L131.344 330.895Z" fill="#181A1C" stroke="white" stroke-width="1.04594"/>
<path d="M154.906 330.895C155.286 332.231 154.283 333.559 152.894 333.559H138.123C137.188 333.559 136.367 332.938 136.111 332.039L131.859 317.078C131.479 315.742 132.482 314.414 133.871 314.414H148.642C149.577 314.414 150.398 315.035 150.654 315.934L154.906 330.895Z" fill="#181A1C" stroke="white" stroke-width="1.04594"/>
<path d="M67.0704 353.58C67.4501 354.916 66.4468 356.244 65.0582 356.244H50.2872C49.3522 356.244 48.5307 355.624 48.275 354.724L44.0229 339.765C43.6432 338.43 44.6464 337.102 46.035 337.102H60.806C61.7411 337.102 62.5625 337.722 62.8182 338.621L67.0704 353.58Z" fill="#181A1C" stroke="white" stroke-width="1.04594"/>
<path d="M90.6467 353.58C91.0263 354.916 90.023 356.244 88.6345 356.244H73.8633C72.9282 356.244 72.1067 355.623 71.8511 354.724L67.6006 339.765C67.2211 338.43 68.2243 337.102 69.6128 337.102H84.384C85.3191 337.102 86.1406 337.722 86.3962 338.622L90.6467 353.58Z" fill="#181A1C" stroke="white" stroke-width="1.04594"/>
<path d="M114.211 353.58C114.591 354.916 113.588 356.244 112.199 356.244H97.4278C96.4928 356.244 95.6713 355.624 95.4157 354.724L91.1635 339.765C90.7838 338.43 91.787 337.102 93.1756 337.102H107.949C108.884 337.102 109.705 337.722 109.961 338.622L114.211 353.58Z" fill="#181A1C" stroke="white" stroke-width="1.04594"/>
<path d="M137.781 353.58C138.161 354.916 137.158 356.244 135.769 356.244H120.998C120.063 356.244 119.242 355.624 118.986 354.724L114.734 339.765C114.354 338.43 115.357 337.102 116.746 337.102H131.517C132.452 337.102 133.273 337.722 133.529 338.621L137.781 353.58Z" fill="#181A1C" stroke="white" stroke-width="1.04594"/>
<path d="M161.352 353.58C161.731 354.916 160.728 356.244 159.339 356.244H144.568C143.633 356.244 142.812 355.624 142.556 354.724L138.304 339.765C137.924 338.43 138.928 337.102 140.316 337.102H155.087C156.022 337.102 156.844 337.722 157.099 338.621L161.352 353.58Z" fill="#181A1C" stroke="white" stroke-width="1.04594"/>
<path d="M73.5313 376.244C73.911 377.58 72.9078 378.908 71.5192 378.908H56.7481C55.8131 378.908 54.9916 378.288 54.736 377.388L50.4838 362.429C50.1041 361.094 51.1073 359.766 52.496 359.766H67.267C68.202 359.766 69.0235 360.386 69.2791 361.286L73.5313 376.244Z" fill="#181A1C" stroke="white" stroke-width="1.04594"/>
<path d="M97.092 376.244C97.4716 377.58 96.4684 378.908 95.0798 378.908H80.3087C79.3736 378.908 78.552 378.287 78.2964 377.388L74.0459 362.429C73.6664 361.094 74.6696 359.766 76.0582 359.766H90.8293C91.7644 359.766 92.5859 360.386 92.8415 361.286L97.092 376.244Z" fill="#181A1C" stroke="white" stroke-width="1.04594"/>
<path d="M120.655 376.244C121.034 377.58 120.031 378.908 118.642 378.908H103.871C102.936 378.908 102.115 378.287 101.859 377.388L97.6084 362.429C97.2289 361.094 98.2321 359.766 99.6207 359.766H114.392C115.327 359.766 116.148 360.386 116.404 361.286L120.655 376.244Z" fill="#E9530E"/>
<path d="M43.2738 395.194H0.575712C0.506727 395.195 0.438504 395.18 0.375933 395.151C0.313362 395.122 0.257998 395.079 0.21381 395.026C0.169185 394.973 0.136615 394.912 0.118382 394.845C0.100149 394.778 0.0966892 394.708 0.108251 394.64L17.402 293.644C17.4126 293.583 17.4352 293.524 17.4685 293.471C17.5018 293.418 17.5452 293.373 17.5961 293.337C17.647 293.301 17.7045 293.275 17.7652 293.262C17.826 293.248 17.8889 293.246 17.9503 293.257C18.0117 293.268 18.0704 293.29 18.123 293.324C18.1757 293.357 18.2213 293.4 18.2572 293.451C18.2931 293.502 18.3186 293.56 18.3323 293.621C18.346 293.681 18.3476 293.744 18.337 293.806L1.14873 394.245H43.2738C43.3995 394.245 43.52 394.295 43.6089 394.384C43.6978 394.473 43.7477 394.594 43.7477 394.72C43.7477 394.846 43.6978 394.966 43.6089 395.055C43.52 395.144 43.3995 395.194 43.2738 395.194Z" fill="white"/>
<path d="M365.987 79.3203H225.523V166.481H365.987V79.3203Z" fill="#181A1C"/>
<path d="M366.128 167.198H225.557C225.368 167.198 225.187 167.123 225.053 166.989C224.92 166.856 224.844 166.675 224.844 166.486V79.4304C224.844 79.2415 224.92 79.0605 225.053 78.9271C225.187 78.7937 225.368 78.7187 225.557 78.7188H366.128C366.317 78.7188 366.497 78.7937 366.631 78.9272C366.764 79.0607 366.839 79.2417 366.839 79.4304V166.486C366.839 166.675 366.764 166.856 366.631 166.989C366.497 167.123 366.317 167.198 366.128 167.198ZM226.268 165.772H365.415V80.1357H226.268V165.772Z" fill="#323638"/>
<path d="M366.12 152.692H225.549C225.452 152.698 225.355 152.683 225.264 152.65C225.173 152.616 225.09 152.565 225.02 152.498C224.949 152.431 224.893 152.351 224.855 152.262C224.817 152.173 224.797 152.077 224.797 151.979C224.797 151.882 224.817 151.786 224.855 151.697C224.893 151.608 224.949 151.528 225.02 151.461C225.09 151.394 225.173 151.343 225.264 151.309C225.355 151.276 225.452 151.261 225.549 151.267H366.12C366.302 151.277 366.474 151.356 366.599 151.489C366.724 151.621 366.794 151.797 366.794 151.979C366.794 152.162 366.724 152.338 366.599 152.47C366.474 152.603 366.302 152.682 366.12 152.692Z" fill="#323638"/>
<path d="M366.12 138.184H225.549C225.452 138.19 225.355 138.175 225.264 138.142C225.173 138.108 225.09 138.057 225.02 137.99C224.949 137.923 224.893 137.843 224.855 137.754C224.817 137.665 224.797 137.569 224.797 137.472C224.797 137.375 224.817 137.279 224.855 137.189C224.893 137.1 224.949 137.02 225.02 136.953C225.09 136.886 225.173 136.835 225.264 136.801C225.355 136.768 225.452 136.754 225.549 136.759H366.12C366.302 136.769 366.474 136.848 366.599 136.981C366.724 137.114 366.794 137.289 366.794 137.472C366.794 137.654 366.724 137.83 366.599 137.962C366.474 138.095 366.302 138.174 366.12 138.184Z" fill="#323638"/>
<path d="M366.12 123.669H225.549C225.452 123.674 225.355 123.66 225.264 123.626C225.173 123.593 225.09 123.541 225.02 123.474C224.949 123.408 224.893 123.327 224.855 123.238C224.817 123.149 224.797 123.053 224.797 122.956C224.797 122.859 224.817 122.763 224.855 122.674C224.893 122.585 224.949 122.504 225.02 122.438C225.09 122.371 225.173 122.319 225.264 122.286C225.355 122.252 225.452 122.238 225.549 122.243H366.12C366.302 122.253 366.474 122.333 366.599 122.465C366.724 122.598 366.794 122.774 366.794 122.956C366.794 123.139 366.724 123.314 366.599 123.447C366.474 123.579 366.302 123.659 366.12 123.669Z" fill="#323638"/>
<path d="M366.12 109.153H225.549C225.452 109.159 225.355 109.144 225.264 109.111C225.173 109.077 225.09 109.026 225.02 108.959C224.949 108.892 224.893 108.812 224.855 108.723C224.817 108.633 224.797 108.537 224.797 108.44C224.797 108.343 224.817 108.247 224.855 108.158C224.893 108.069 224.949 107.989 225.02 107.922C225.09 107.855 225.173 107.804 225.264 107.77C225.355 107.737 225.452 107.722 225.549 107.728H366.12C366.302 107.738 366.474 107.817 366.599 107.95C366.724 108.082 366.794 108.258 366.794 108.44C366.794 108.623 366.724 108.799 366.599 108.931C366.474 109.064 366.302 109.143 366.12 109.153Z" fill="#323638"/>
<path d="M366.128 94.6543H225.557C225.368 94.6543 225.186 94.5791 225.053 94.4452C224.919 94.3113 224.844 94.1297 224.844 93.9404C224.844 93.7511 224.919 93.5695 225.053 93.4356C225.186 93.3018 225.368 93.2266 225.557 93.2266H366.128C366.317 93.2266 366.498 93.3018 366.632 93.4356C366.766 93.5695 366.841 93.7511 366.841 93.9404C366.841 94.1297 366.766 94.3113 366.632 94.4452C366.498 94.5791 366.317 94.6543 366.128 94.6543Z" fill="#323638"/>
<path d="M248.984 167.192C248.796 167.192 248.615 167.117 248.482 166.983C248.348 166.85 248.273 166.669 248.273 166.48V79.4246C248.283 79.2424 248.363 79.0709 248.495 78.9454C248.628 78.8199 248.803 78.75 248.985 78.75C249.168 78.75 249.343 78.8199 249.476 78.9454C249.608 79.0709 249.687 79.2424 249.697 79.4246V166.48C249.697 166.669 249.621 166.85 249.488 166.983C249.354 167.117 249.173 167.192 248.984 167.192Z" fill="#323638"/>
<path d="M272.406 167.192C272.218 167.192 272.037 167.117 271.904 166.983C271.77 166.85 271.695 166.669 271.695 166.48V79.4246C271.705 79.2424 271.785 79.0709 271.917 78.9454C272.05 78.8199 272.225 78.75 272.407 78.75C272.59 78.75 272.765 78.8199 272.897 78.9454C273.03 79.0709 273.109 79.2424 273.119 79.4246V166.48C273.119 166.669 273.043 166.85 272.91 166.983C272.776 167.117 272.595 167.192 272.406 167.192Z" fill="#323638"/>
<path d="M295.838 167.2C295.649 167.2 295.468 167.125 295.335 166.991C295.201 166.858 295.126 166.677 295.125 166.488V79.4326C295.125 79.2433 295.2 79.0617 295.334 78.9278C295.468 78.794 295.649 78.7188 295.838 78.7188C296.027 78.7188 296.209 78.794 296.342 78.9278C296.476 79.0617 296.551 79.2433 296.551 79.4326V166.488C296.55 166.677 296.475 166.858 296.341 166.991C296.208 167.125 296.027 167.2 295.838 167.2Z" fill="#323638"/>
<path d="M319.268 167.192C319.079 167.192 318.898 167.117 318.764 166.983C318.631 166.85 318.555 166.669 318.555 166.48V79.4246C318.565 79.2424 318.644 79.0709 318.777 78.9454C318.909 78.8199 319.084 78.75 319.267 78.75C319.449 78.75 319.624 78.8199 319.757 78.9454C319.889 79.0709 319.969 79.2424 319.979 79.4246V166.48C319.979 166.669 319.904 166.85 319.77 166.983C319.637 167.117 319.456 167.192 319.268 167.192Z" fill="#323638"/>
<path d="M342.69 167.192C342.501 167.192 342.32 167.117 342.186 166.983C342.053 166.85 341.977 166.669 341.977 166.48V79.4246C341.987 79.2424 342.066 79.0709 342.198 78.9454C342.331 78.8199 342.506 78.75 342.689 78.75C342.871 78.75 343.046 78.8199 343.179 78.9454C343.311 79.0709 343.39 79.2424 343.4 79.4246V166.48C343.4 166.669 343.326 166.85 343.192 166.983C343.059 167.117 342.878 167.192 342.69 167.192Z" fill="#323638"/>
<path d="M228.093 164.128C228.018 164.128 227.944 164.11 227.878 164.076C227.821 164.048 227.77 164.009 227.728 163.962C227.686 163.914 227.654 163.858 227.634 163.798C227.614 163.738 227.606 163.674 227.611 163.611C227.616 163.547 227.633 163.485 227.662 163.429L248.672 122.573C248.724 122.473 248.81 122.394 248.914 122.351C249.019 122.309 249.136 122.305 249.243 122.34L295.267 137.549L343.521 107.55L363.339 81.6551C363.377 81.6055 363.424 81.5639 363.478 81.5327C363.532 81.5014 363.592 81.4811 363.654 81.4729C363.715 81.4647 363.778 81.4687 363.839 81.4848C363.899 81.5009 363.955 81.5287 364.005 81.5667C364.054 81.6046 364.096 81.652 364.127 81.706C364.158 81.76 364.179 81.8197 364.187 81.8816C364.195 81.9435 364.191 82.0063 364.175 82.0667C364.159 82.127 364.131 82.1835 364.093 82.2331L344.229 108.195C344.195 108.242 344.152 108.281 344.102 108.311L295.59 138.474C295.531 138.511 295.464 138.534 295.395 138.542C295.326 138.551 295.256 138.544 295.189 138.522L249.34 123.376L228.517 163.869C228.477 163.947 228.416 164.012 228.341 164.058C228.267 164.103 228.181 164.128 228.093 164.128Z" fill="white"/>
<path d="M249.169 128.76C252.585 128.76 255.354 125.993 255.354 122.579C255.354 119.166 252.585 116.398 249.169 116.398C245.753 116.398 242.984 119.166 242.984 122.579C242.984 125.993 245.753 128.76 249.169 128.76Z" fill="#181A1C"/>
<path d="M249.165 129.245C247.85 129.243 246.565 128.851 245.472 128.119C244.38 127.386 243.529 126.345 243.027 125.129C242.525 123.912 242.395 122.573 242.652 121.282C242.91 119.991 243.544 118.806 244.475 117.876C245.406 116.946 246.591 116.313 247.881 116.057C249.17 115.801 250.507 115.933 251.722 116.438C252.936 116.942 253.974 117.796 254.704 118.891C255.434 119.986 255.824 121.273 255.823 122.589C255.819 124.355 255.116 126.047 253.868 127.295C252.62 128.543 250.929 129.244 249.165 129.245ZM249.165 116.883C248.038 116.885 246.937 117.221 246 117.849C245.064 118.477 244.335 119.369 243.905 120.412C243.475 121.454 243.363 122.602 243.584 123.708C243.805 124.814 244.348 125.83 245.146 126.628C245.943 127.425 246.959 127.967 248.065 128.187C249.17 128.406 250.316 128.293 251.357 127.861C252.398 127.429 253.287 126.697 253.913 125.759C254.539 124.821 254.873 123.718 254.873 122.589C254.871 121.075 254.268 119.624 253.198 118.554C252.127 117.485 250.677 116.883 249.165 116.883Z" fill="white"/>
<path d="M295.349 143.784C298.764 143.784 301.533 141.016 301.533 137.603C301.533 134.189 298.764 131.422 295.349 131.422C291.933 131.422 289.164 134.189 289.164 137.603C289.164 141.016 291.933 143.784 295.349 143.784Z" fill="#181A1C"/>
<path d="M295.352 144.253C294.037 144.251 292.752 143.859 291.66 143.126C290.567 142.394 289.716 141.353 289.214 140.136C288.713 138.92 288.582 137.581 288.84 136.29C289.098 134.999 289.732 133.814 290.662 132.884C291.593 131.954 292.778 131.32 294.068 131.065C295.358 130.809 296.695 130.941 297.909 131.446C299.124 131.95 300.162 132.804 300.892 133.899C301.622 134.994 302.011 136.281 302.011 137.597C302.007 139.363 301.304 141.056 300.056 142.303C298.808 143.551 297.116 144.252 295.352 144.253ZM295.352 131.891C294.225 131.893 293.124 132.229 292.188 132.858C291.253 133.486 290.524 134.378 290.094 135.421C289.664 136.464 289.553 137.611 289.774 138.717C289.995 139.823 290.539 140.839 291.336 141.636C292.134 142.433 293.15 142.976 294.255 143.195C295.36 143.414 296.506 143.301 297.547 142.868C298.588 142.436 299.477 141.705 300.103 140.766C300.729 139.828 301.063 138.725 301.063 137.597C301.061 136.082 300.458 134.63 299.387 133.56C298.317 132.49 296.865 131.889 295.352 131.889V131.891Z" fill="white"/>
<path d="M343.317 114.643C346.733 114.643 349.502 111.876 349.502 108.462C349.502 105.049 346.733 102.281 343.317 102.281C339.902 102.281 337.133 105.049 337.133 108.462C337.133 111.876 339.902 114.643 343.317 114.643Z" fill="#181A1C"/>
<path d="M343.307 115.108C341.993 115.105 340.708 114.713 339.617 113.98C338.525 113.247 337.675 112.207 337.174 110.99C336.673 109.774 336.543 108.436 336.801 107.146C337.059 105.856 337.693 104.671 338.624 103.742C339.554 102.812 340.738 102.18 342.028 101.924C343.317 101.668 344.653 101.801 345.867 102.305C347.081 102.809 348.118 103.662 348.848 104.756C349.578 105.85 349.968 107.137 349.968 108.452C349.964 110.219 349.261 111.911 348.012 113.159C346.763 114.407 345.071 115.108 343.307 115.108ZM343.307 102.746C342.18 102.748 341.079 103.084 340.143 103.713C339.207 104.341 338.478 105.233 338.048 106.276C337.619 107.319 337.507 108.466 337.728 109.572C337.95 110.678 338.493 111.694 339.291 112.491C340.088 113.288 341.104 113.831 342.209 114.05C343.315 114.269 344.46 114.156 345.501 113.723C346.542 113.291 347.432 112.56 348.058 111.622C348.683 110.683 349.018 109.58 349.018 108.452C349.015 106.938 348.412 105.486 347.341 104.417C346.27 103.347 344.819 102.746 343.307 102.746Z" fill="white"/>
<path d="M365.404 193.689C379.91 193.689 391.668 181.936 391.668 167.438C391.668 152.94 379.91 141.188 365.404 141.188C350.899 141.188 339.141 152.94 339.141 167.438C339.141 181.936 350.899 193.689 365.404 193.689Z" fill="#181A1C"/>
<path d="M365.402 194.156C350.659 194.156 338.664 182.167 338.664 167.431C338.664 152.694 350.659 140.703 365.402 140.703C380.145 140.703 392.14 152.692 392.14 167.431C392.14 182.169 380.145 194.156 365.402 194.156ZM365.402 141.654C351.184 141.654 339.612 153.216 339.612 167.431C339.612 181.645 351.182 193.207 365.402 193.207C379.622 193.207 391.19 181.643 391.19 167.431C391.19 153.218 379.622 141.654 365.402 141.654Z" fill="white"/>
<path d="M394.817 160.226C393.243 153.614 389.492 147.724 384.169 143.506C378.845 139.287 372.258 136.984 365.469 136.969V167.326C365.469 167.326 389.925 161.354 394.817 160.226Z" fill="#323638"/>
<path d="M348.305 144.734C345.293 146.997 342.758 149.834 340.848 153.082C338.937 156.33 337.688 159.925 337.172 163.659C344.119 164.589 365.514 167.416 365.514 167.416C365.514 167.416 351.127 148.537 348.305 144.734Z" fill="#181A1C"/>
<path d="M365.504 167.91H365.444C365.444 167.91 344.046 165.081 337.099 164.153C336.975 164.135 336.862 164.07 336.785 163.97C336.747 163.92 336.719 163.863 336.703 163.803C336.687 163.742 336.683 163.679 336.692 163.616C337.224 159.822 338.498 156.17 340.44 152.869C342.382 149.567 344.954 146.681 348.01 144.375C348.112 144.3 348.238 144.268 348.363 144.286C348.488 144.304 348.6 144.371 348.676 144.472C351.463 148.229 365.739 166.961 365.883 167.149C365.937 167.219 365.971 167.304 365.979 167.392C365.988 167.481 365.971 167.57 365.932 167.649C365.892 167.729 365.831 167.796 365.756 167.842C365.68 167.889 365.593 167.913 365.504 167.912V167.91ZM337.705 163.26C344.055 164.11 360.043 166.224 364.438 166.804C361.638 163.12 351.123 149.322 348.204 145.412C342.572 149.815 338.819 156.194 337.705 163.26Z" fill="white"/>
<path d="M337.077 264.423H225.529C225.403 264.423 225.282 264.373 225.193 264.284C225.105 264.195 225.055 264.075 225.055 263.949V194.429C225.063 194.308 225.116 194.195 225.205 194.113C225.293 194.03 225.409 193.984 225.53 193.984C225.65 193.984 225.767 194.03 225.855 194.113C225.943 194.195 225.997 194.308 226.005 194.429V263.479H337.077C337.197 263.487 337.31 263.54 337.392 263.629C337.475 263.717 337.521 263.833 337.521 263.954C337.521 264.075 337.475 264.191 337.392 264.28C337.31 264.368 337.197 264.421 337.077 264.43V264.423Z" fill="white"/>
<path d="M237.94 213.211H232.256C231.101 213.211 230.164 214.148 230.164 215.303V257.839C230.164 258.994 231.101 259.931 232.256 259.931H237.94C239.096 259.931 240.032 258.994 240.032 257.839V215.303C240.032 214.148 239.096 213.211 237.94 213.211Z" fill="#181A1C" stroke="white" stroke-width="1.04594"/>
<path d="M253.48 234.836H247.795C246.64 234.836 245.703 235.772 245.703 236.928V257.845C245.703 259.001 246.64 259.937 247.795 259.937H253.48C254.635 259.937 255.571 259.001 255.571 257.845V236.928C255.571 235.773 254.635 234.836 253.48 234.836Z" fill="#181A1C" stroke="white" stroke-width="1.04594"/>
<path d="M269.003 225.062H263.318C262.163 225.062 261.227 225.999 261.227 227.154V257.839C261.227 258.995 262.163 259.931 263.318 259.931H269.003C270.158 259.931 271.095 258.995 271.095 257.839V227.154C271.095 225.999 270.158 225.062 269.003 225.062Z" fill="#181A1C" stroke="white" stroke-width="1.04594"/>
<path d="M284.542 209.781H278.858C277.702 209.781 276.766 210.718 276.766 211.873V257.838C276.766 258.993 277.702 259.93 278.858 259.93H284.542C285.697 259.93 286.634 258.993 286.634 257.838V211.873C286.634 210.718 285.697 209.781 284.542 209.781Z" fill="#181A1C" stroke="white" stroke-width="1.04594"/>
<path d="M299.826 199.297H294.639C293.483 199.297 292.547 200.233 292.547 201.389V257.846C292.547 259.001 293.483 259.938 294.639 259.938H299.826C300.981 259.938 301.918 259.001 301.918 257.846V201.389C301.918 200.233 300.981 199.297 299.826 199.297Z" fill="#181A1C" stroke="white" stroke-width="1.04594"/>
<path d="M315.612 196.078H309.928C308.773 196.078 307.836 197.015 307.836 198.17V257.847C307.836 259.002 308.773 259.939 309.928 259.939H315.612C316.768 259.939 317.704 259.002 317.704 257.847V198.17C317.704 197.015 316.768 196.078 315.612 196.078Z" fill="#181A1C" stroke="white" stroke-width="1.04594"/>
<path d="M331.151 204.039H325.467C324.312 204.039 323.375 204.976 323.375 206.131V257.852C323.375 259.007 324.312 259.944 325.467 259.944H331.151C332.307 259.944 333.243 259.007 333.243 257.852V206.131C333.243 204.976 332.307 204.039 331.151 204.039Z" fill="#181A1C" stroke="white" stroke-width="1.04594"/>
<path d="M375.313 15.1229H230.164C230.099 15.1273 230.034 15.1183 229.973 15.0964C229.911 15.0745 229.855 15.0403 229.807 14.9957C229.76 14.9512 229.722 14.8973 229.696 14.8375C229.67 14.7777 229.656 14.7132 229.656 14.648C229.656 14.5827 229.67 14.5182 229.696 14.4584C229.722 14.3986 229.76 14.3447 229.807 14.3002C229.855 14.2556 229.911 14.2214 229.973 14.1995C230.034 14.1776 230.099 14.1686 230.164 14.173H375.313C375.434 14.1811 375.547 14.2346 375.629 14.3228C375.711 14.411 375.757 14.5272 375.757 14.648C375.757 14.7687 375.711 14.8849 375.629 14.9731C375.547 15.0613 375.434 15.1148 375.313 15.1229Z" fill="white"/>
<path d="M257.214 27.1386H230.164C230.099 27.143 230.034 27.1339 229.973 27.112C229.911 27.0902 229.855 27.0559 229.807 27.0113C229.76 26.9668 229.722 26.913 229.696 26.8531C229.67 26.7933 229.656 26.7288 229.656 26.6636C229.656 26.5984 229.67 26.5338 229.696 26.474C229.722 26.4142 229.76 26.3603 229.807 26.3158C229.855 26.2713 229.911 26.237 229.973 26.2151C230.034 26.1932 230.099 26.1842 230.164 26.1886H257.214C257.279 26.1842 257.345 26.1932 257.406 26.2151C257.468 26.237 257.524 26.2713 257.572 26.3158C257.619 26.3603 257.657 26.4142 257.683 26.474C257.709 26.5338 257.723 26.5984 257.723 26.6636C257.723 26.7288 257.709 26.7933 257.683 26.8531C257.657 26.913 257.619 26.9668 257.572 27.0113C257.524 27.0559 257.468 27.0902 257.406 27.112C257.345 27.1339 257.279 27.143 257.214 27.1386Z" fill="white"/>
<path d="M326.098 27.1375H273.038C272.917 27.1294 272.805 27.0758 272.722 26.9876C272.64 26.8994 272.594 26.7832 272.594 26.6625C272.594 26.5418 272.64 26.4256 272.722 26.3374C272.805 26.2492 272.917 26.1956 273.038 26.1875H326.098C326.218 26.1956 326.331 26.2492 326.413 26.3374C326.496 26.4256 326.542 26.5418 326.542 26.6625C326.542 26.7832 326.496 26.8994 326.413 26.9876C326.331 27.0758 326.218 27.1294 326.098 27.1375Z" fill="white"/>
<path d="M277.416 39.1666H230.161C230.036 39.1666 229.915 39.1167 229.826 39.0278C229.737 38.9389 229.687 38.8184 229.688 38.6927C229.687 38.567 229.737 38.4464 229.826 38.3576C229.915 38.2687 230.036 38.2188 230.161 38.2188H277.416C277.541 38.2188 277.662 38.2687 277.751 38.3576C277.84 38.4464 277.89 38.567 277.89 38.6927C277.89 38.8184 277.84 38.9389 277.751 39.0278C277.662 39.1167 277.541 39.1666 277.416 39.1666Z" fill="white"/>
<path d="M326.101 39.1666H304.396C304.27 39.1666 304.15 39.1167 304.061 39.0278C303.972 38.9389 303.922 38.8184 303.922 38.6927C303.922 38.567 303.972 38.4464 304.061 38.3576C304.15 38.2687 304.27 38.2188 304.396 38.2188H326.101C326.227 38.2188 326.348 38.2687 326.436 38.3576C326.525 38.4464 326.575 38.567 326.575 38.6927C326.575 38.8184 326.525 38.9389 326.436 39.0278C326.348 39.1167 326.227 39.1666 326.101 39.1666Z" fill="white"/>
<path d="M254.821 51.1933H230.164C230.099 51.1977 230.034 51.1886 229.973 51.1667C229.911 51.1448 229.855 51.1106 229.807 51.066C229.76 51.0215 229.722 50.9676 229.696 50.9078C229.67 50.848 229.656 50.7835 229.656 50.7183C229.656 50.6531 229.67 50.5885 229.696 50.5287C229.722 50.4689 229.76 50.415 229.807 50.3705C229.855 50.326 229.911 50.2917 229.973 50.2698C230.034 50.2479 230.099 50.2389 230.164 50.2433H254.821C254.886 50.2389 254.951 50.2479 255.013 50.2698C255.074 50.2917 255.131 50.326 255.178 50.3705C255.226 50.415 255.264 50.4689 255.29 50.5287C255.316 50.5885 255.329 50.6531 255.329 50.7183C255.329 50.7835 255.316 50.848 255.29 50.9078C255.264 50.9676 255.226 51.0215 255.178 51.066C255.131 51.1106 255.074 51.1448 255.013 51.1667C254.951 51.1886 254.886 51.1977 254.821 51.1933Z" fill="white"/>
<path d="M326.102 51.2H268.311C268.191 51.1919 268.078 51.1383 267.995 51.0501C267.913 50.9619 267.867 50.8457 267.867 50.725C267.867 50.6043 267.913 50.4881 267.995 50.3999C268.078 50.3117 268.191 50.2581 268.311 50.25H326.102C326.222 50.2581 326.335 50.3117 326.417 50.3999C326.5 50.4881 326.546 50.6043 326.546 50.725C326.546 50.8457 326.5 50.9619 326.417 51.0501C326.335 51.1383 326.222 51.1919 326.102 51.2Z" fill="white"/>
<path d="M389.629 20.3813C392.799 20.3813 395.368 17.809 395.368 14.636C395.368 11.4629 392.799 8.89062 389.629 8.89062C386.46 8.89062 383.891 11.4629 383.891 14.636C383.891 17.809 386.46 20.3813 389.629 20.3813Z" fill="#323638"/>
<path d="M495.362 57.2379C498.962 57.2379 501.881 54.32 501.881 50.7205C501.881 47.1211 498.962 44.2031 495.362 44.2031C491.762 44.2031 488.844 47.1211 488.844 50.7205C488.844 54.32 491.762 57.2379 495.362 57.2379Z" fill="#323638"/>
<path d="M476.347 57.2379C479.947 57.2379 482.865 54.32 482.865 50.7205C482.865 47.1211 479.947 44.2031 476.347 44.2031C472.747 44.2031 469.828 47.1211 469.828 50.7205C469.828 54.32 472.747 57.2379 476.347 57.2379Z" fill="#323638"/>
<path d="M457.315 57.2379C460.916 57.2379 463.834 54.32 463.834 50.7205C463.834 47.1211 460.916 44.2031 457.315 44.2031C453.715 44.2031 450.797 47.1211 450.797 50.7205C450.797 54.32 453.715 57.2379 457.315 57.2379Z" fill="#323638"/>
<path d="M366.125 71.0574C365.998 71.0574 365.877 71.0072 365.788 70.9178C365.699 70.8284 365.648 70.7072 365.648 70.5808C365.648 67.2963 365.651 64.0117 365.653 60.7272C365.655 54.9437 370.342 50.25 376.126 50.25C398.747 50.25 421.368 50.25 443.99 50.25C444.11 50.2581 444.223 50.3118 444.305 50.4C444.388 50.4883 444.434 50.6047 444.434 50.7255C444.434 50.8464 444.388 50.9628 444.305 51.051C444.223 51.1393 444.11 51.193 443.99 51.2011H377.058C371.281 51.2011 366.598 55.8839 366.598 61.6605V70.5808C366.598 70.7068 366.549 70.8277 366.46 70.917C366.371 71.0064 366.25 71.0568 366.125 71.0574Z" fill="white"/>
</svg>
