<svg width="82" height="18" viewBox="0 0 82 18" fill="none" xmlns="http://www.w3.org/2000/svg">
<path d="M3.59484 17.5655L0.59375 15.0172V3.1978L3.59484 0.649414H12.9997L15.7303 2.96716L13.5947 4.8037L11.6215 3.17502H5.16088L3.97071 4.18583L3.99632 14.0291L5.15807 15.0399H11.8607L13.8339 13.3885L15.9695 15.2478L13.2388 17.5655H3.59484Z" fill="white"/>
<path d="M21.9855 17.5666L18.9844 15.0182V0.65332H22.3642V14.033L23.5544 15.0439H30.1489L31.3391 14.033L31.3675 0.65332H34.7473V15.0182L31.7462 17.5666H21.9855Z" fill="white"/>
<path d="M37.9453 17.5666V0.65332H49.4059L52.407 3.2017V7.17092L51.1086 8.40951L53.2983 10.2461V15.0182L50.2971 17.5666H37.9453ZM41.3251 7.44426H47.8399L49.0016 6.29678V4.18689L47.8114 3.17608H41.3251V7.44426ZM41.3251 15.041H48.7026L49.8928 14.0302V10.9778L48.7026 9.96701H41.3251V15.041Z" fill="white"/>
<path d="M56.5391 17.5666V14.9499H58.5664V3.27004H56.5391V0.65332H63.9707V3.27004H61.9433V14.9499H63.9707V17.5666H56.5391Z" fill="white"/>
<path d="M72.6347 17.5666V3.27004H67.0938V0.65332H81.5526V3.27004H76.0117V17.5666H72.6347Z" fill="white"/>
</svg>
