<svg width="123" height="36" viewBox="0 0 123 36" fill="none" xmlns="http://www.w3.org/2000/svg">
<path d="M44.5948 26.5655L41.5938 24.0172V12.1978L44.5948 9.64941H53.9997L56.7303 11.9672L54.5947 13.8037L52.6215 12.175H46.1609L44.9707 13.1858L44.9963 23.0291L46.1581 24.0399H52.8607L54.8339 22.3885L56.9695 24.2478L54.2388 26.5655H44.5948Z" fill="white"/>
<path d="M62.9855 26.5666L59.9844 24.0182V9.65332H63.3642V23.033L64.5544 24.0439H71.1489L72.3391 23.033L72.3675 9.65332H75.7473V24.0182L72.7462 26.5666H62.9855Z" fill="white"/>
<path d="M78.9453 26.5666V9.65332H90.4059L93.407 12.2017V16.1709L92.1086 17.4095L94.2983 19.2461V24.0182L91.2971 26.5666H78.9453ZM82.3251 16.4443H88.8399L90.0016 15.2968V13.1869L88.8114 12.1761H82.3251V16.4443ZM82.3251 24.041H89.7026L90.8928 23.0302V19.9778L89.7026 18.967H82.3251V24.041Z" fill="white"/>
<path d="M97.5391 26.5666V23.9499H99.5664V12.27H97.5391V9.65332H104.971V12.27H102.943V23.9499H104.971V26.5666H97.5391Z" fill="white"/>
<path d="M113.635 26.5666V12.27H108.094V9.65332H122.553V12.27H117.012V26.5666H113.635Z" fill="white"/>
<path d="M31.4399 8.74195L29.3642 7.54891L16.7077 0.265381L14.9338 1.28758V9.84103V13.964L16.3319 14.767L17.6217 14.0181V3.88437L26.6877 9.10072L27.9747 9.84103L27.5419 10.0944L26.5368 10.6782L16.3347 16.595L2.32858 8.53694L2.041 8.70494L1.97551 8.74195L1.26653 9.14912L0.554688 9.55914V12.0961V26.5094L1.11561 27.4747L15.8478 35.9513L17.6217 34.9319V20.7635L17.0807 21.0112H15.4634L14.9338 20.7692V32.3323L4.58655 26.3813L14.6149 20.6126L11.927 19.0665L3.24257 24.0607V13.6423V12.1559L15.7766 19.3683L16.8985 19.3654L27.0835 13.46L29.3101 12.1673V13.6536V24.0607L20.6883 19.1006L18.0118 20.6524L30.2241 27.6797L31.998 26.6604V12.0961V9.70721L31.4399 8.74195Z" fill="#E9530E"/>
</svg>
