<svg width="20" height="20" viewBox="0 0 20 20" fill="none" xmlns="http://www.w3.org/2000/svg">
<path d="M2.42796 9.83986C7.66462 7.53611 14.4413 4.72737 15.3767 4.33862C17.8305 3.32112 18.5834 3.51612 18.208 5.76945C17.9384 7.38903 17.1605 12.7511 16.5405 16.0886C16.1725 18.0678 15.3471 18.3024 14.0492 17.4461C13.425 17.034 10.2746 14.9507 9.59087 14.4615C8.96671 14.0157 8.10587 13.4794 9.18546 12.4232C9.56962 12.0469 12.088 9.64236 14.05 7.7707C14.3071 7.52486 13.9842 7.12111 13.6875 7.3182C11.043 9.07195 7.37629 11.5061 6.90962 11.8232C6.20462 12.3019 5.52754 12.5215 4.31213 12.1724C3.39379 11.9086 2.49671 11.594 2.14754 11.474C0.802961 11.0124 1.12213 10.4144 2.42796 9.83986Z" fill="white"/>
</svg>
