<svg width="32" height="36" viewBox="0 0 32 36" fill="none" xmlns="http://www.w3.org/2000/svg">
<path d="M31.4399 8.74195L29.3642 7.54891L16.7077 0.265381L14.9338 1.28758V9.84103V13.964L16.3319 14.767L17.6217 14.0181V3.88437L26.6877 9.10072L27.9747 9.84103L27.5419 10.0944L26.5368 10.6782L16.3347 16.595L2.32858 8.53694L2.041 8.70494L1.97551 8.74195L1.26653 9.14912L0.554688 9.55914V12.0961V26.5094L1.11561 27.4747L15.8478 35.9513L17.6217 34.9319V20.7635L17.0807 21.0112H15.4634L14.9338 20.7692V32.3323L4.58655 26.3813L14.6149 20.6126L11.927 19.0665L3.24257 24.0607V13.6423V12.1559L15.7766 19.3683L16.8985 19.3654L27.0835 13.46L29.3101 12.1673V13.6536V24.0607L20.6883 19.1006L18.0118 20.6524L30.2241 27.6797L31.998 26.6604V12.0961V9.70721L31.4399 8.74195Z" fill="#E9530E"/>
</svg>
