<svg width="18" height="18" viewBox="0 0 18 18" fill="none" xmlns="http://www.w3.org/2000/svg">
<path d="M16.8705 8.21001L9.21216 15.8683C8.27395 16.8065 7.00148 17.3336 5.67466 17.3336C4.34784 17.3336 3.07536 16.8065 2.13716 15.8683C1.19895 14.9301 0.671875 13.6577 0.671875 12.3308C0.671875 11.004 1.19895 9.73155 2.13716 8.79334L9.27882 1.65168C9.90429 1.0251 10.753 0.672658 11.6384 0.671876C12.5237 0.671095 13.3731 1.02204 13.9997 1.64751C14.6262 2.27298 14.9787 3.12174 14.9795 4.00706C14.9802 4.89239 14.6293 5.74177 14.0038 6.36834L6.84549 13.51C6.53275 13.8227 6.1086 13.9984 5.66632 13.9984C5.22405 13.9984 4.79989 13.8227 4.48716 13.51C4.17442 13.1973 3.99873 12.7731 3.99873 12.3308C3.99873 11.8886 4.17442 11.4644 4.48716 11.1517L11.5622 4.08501" stroke="white" stroke-width="0.888889" stroke-linecap="round" stroke-linejoin="round"/>
</svg>
